<?xml version="1.0" encoding="iso-8859-1"?>
<!-- Generator: Adobe Illustrator 16.0.0, SVG Export Plug-In . SVG Version: 6.00 Build 0)  -->
<!DOCTYPE svg PUBLIC "-//W3C//DTD SVG 1.1//EN" "http://www.w3.org/Graphics/SVG/1.1/DTD/svg11.dtd">
<svg version="1.1" id="Capa_1" xmlns="http://www.w3.org/2000/svg" xmlns:xlink="http://www.w3.org/1999/xlink" x="0px" y="0px"
	 width="269.827px" height="269.828px" viewBox="0 0 269.827 269.828" style="enable-background:new 0 0 269.827 269.828;"
	 xml:space="preserve">
<g>
	<g>
		<path d="M225.252,142.414c-0.101-32.1,1-72.8-10.4-103.4c-5.5-14.7-26.3-12.2-38.6-12c3-6.4,1.899-13.7,0.3-20.8
			c-0.7-3.1-3.8-5.2-6.9-5.3c-26.399-0.3-52.5-2.9-78.6,2.3c-3.3,0.7-4.8,3.8-5.1,6.7c-0.9,7.3-0.3,14.5,1.9,21.4
			c-8.2,1.4-16.2,3.3-23.9,5.8c-22.8,7.6-19.9,31.4-18.7,50.5c2.7,46.4,4.5,92.899,7.4,139.3c0.2,3.2,4.1,3.6,5.4,1.3
			c0.4,0.3,0.7,0.5,0.9,0.7c1,2,3,2.8,5.3,2.3c0.8,0.3,1.6,0.4,2.4,0.601c-2.3,14.6-3.9,41.199,16.7,37.699
			c8.3-1.399,9.8-10.899,9.8-17.8c0-3.899,0.2-12.899-2.4-17.8c0.7-0.1,1.4-0.1,2-0.2c14.4,0.5,29.2-1.2,43.3-1.6
			c8.899-0.2,20.8,1.5,32.8,2.1c-0.4,1.101-0.8,2.2-1.2,3.2c-1.2,3.6-1.399,7.7-0.3,11.4c0,0.1,0.1,0.3,0.2,0.399
			c-0.101,7.8,2.399,15,10.7,19.7c2.6,1.4,5.699,0.6,7.199-1.9c0.301-0.5,0.5-0.899,0.7-1.399c11.4-1.601,8.101-24.3,5.8-33
			c6.2-1.5,11.801-4.2,16-8.7C227.651,203.114,225.352,169.414,225.252,142.414z M98.952,16.114c21.4-3.2,42.8-1.4,64.4-0.9
			c0.2,3.9-0.1,7.6,0.3,11.7c0,0.1,0,0.2,0.101,0.2c-20.801,0-43,0.1-64.3,2.7C98.852,25.214,98.552,20.614,98.952,16.114z
			 M185.651,194.013c-6.6,6.801-10.1,17.9-7.5,27.301c-9.8,1.6-21,1.399-32.6,0.8c-17.4-0.9-37,2.7-55.3,1.5c0-0.101,0-0.2,0-0.3
			c-2.1-15.801-14.2-29.2-30.3-30.5l-0.1-0.101c-0.3-0.2-0.6-0.2-0.8-0.3c0-38.4-2.8-76.7-4.9-115.1c-0.1-1.3,0-2.5,0-3.6
			c2.8,0.7,6.2,0,8.5-0.5c4.9-1,9.6-3.9,13.5-7.1c3.7-3,6.8-7.5,7.6-12.3c0.4-2.7,0.1-6.6-1.3-9.7c27.8-9.4,69.8-7.8,95.9-6.7
			c-3.5,17,16.2,31.6,32.7,29.1c7.3,36.3,3.7,95.9,2.8,110.4c-0.1,2.4-0.4,4.5-0.7,6.6
			C203.451,180.814,191.951,187.414,185.651,194.013z"/>
		<path d="M132.652,78.614c-0.5-2.8-4.8-2.1-4.9,0.7c-0.6,40.6,3.7,84.199,12.1,124c0.4,1.899,3.6,1.5,3.4-0.5
			C137.951,161.713,140.052,119.114,132.652,78.614z"/>
		<path d="M109.152,78.514c-7.3,40-4.4,81.8-3.1,122.3c0.1,2.3,3.5,2.3,3.6,0c1-40.7,1.8-81,4.5-121.6
			C114.252,76.414,109.652,75.814,109.152,78.514z"/>
		<path d="M82.052,101.014c-0.4-2.3-4.3-2.3-4.6,0c-3.8,25.1,0.9,51.8-1.6,77.4c-0.2,2.3,3.7,2.8,4.1,0.5
			C84.152,154.614,85.952,125.514,82.052,101.014z"/>
		<path d="M161.252,75.514c0-3.2-5.2-4.1-5.7-0.8c-5.9,40,2.2,82.2,4.399,122.4c0.2,2.7,4.2,2.7,4.2,0
			C165.451,156.713,161.052,116.014,161.252,75.514z"/>
		<path d="M191.252,119.514c-0.801-3-5.301-3-6.101,0c-1.8,7.5,0,16.3,0.2,24c0.3,9.801-0.2,19.5-1.4,29.2
			c-0.399,2.7,4,3.2,4.7,0.601c2.4-8.7,2.9-17.601,3.3-26.601C192.252,138.314,193.451,127.914,191.252,119.514z"/>
	</g>
</g>
<g>
</g>
<g>
</g>
<g>
</g>
<g>
</g>
<g>
</g>
<g>
</g>
<g>
</g>
<g>
</g>
<g>
</g>
<g>
</g>
<g>
</g>
<g>
</g>
<g>
</g>
<g>
</g>
<g>
</g>
</svg>
